inDegrees=no
num_controls=7
num_derivatives=13
num_iterations=116
num_multipliers=7
num_parameters=0
num_slacks=7
num_states=26
objective=4.433918
objective_accelerations=0.102888
objective_balance=0.016001
objective_effort=0.219225
objective_height=4.002961
objective_ligament=0.092842
solver_duration=1130.126282
status=Solve_Succeeded
success=true
DataType=double
version=3
OpenSimVersion=4.4-2022-07-23-0e9fedc
endheader
time	/jointset/ground_pelvis/pelvis_tilt/value	/jointset/ground_pelvis/pelvis_tx/value	/jointset/ground_pelvis/pelvis_ty/value	/jointset/hip_l/hip_flexion_l/value	/jointset/hip_l/hip_adduction_l/value	/jointset/hip_l/hip_rotation_l/value	/jointset/back/lumbar_extension/value	/jointset/patellofemoral_l/patellar_flexion_l/value	/jointset/knee_l/knee_flexion_l/value	/jointset/knee_l/knee_adduction_l/value	/jointset/knee_l/knee_rotation_l/value	/jointset/ankle_l/ankle_angle_l/value	/jointset/subtalar_l/subtalar_angle_l/value	/jointset/ground_pelvis/pelvis_tilt/speed	/jointset/ground_pelvis/pelvis_tx/speed	/jointset/ground_pelvis/pelvis_ty/speed	/jointset/hip_l/hip_flexion_l/speed	/jointset/hip_l/hip_adduction_l/speed	/jointset/hip_l/hip_rotation_l/speed	/jointset/back/lumbar_extension/speed	/jointset/patellofemoral_l/patellar_flexion_l/speed	/jointset/knee_l/knee_flexion_l/speed	/jointset/knee_l/knee_adduction_l/speed	/jointset/knee_l/knee_rotation_l/speed	/jointset/ankle_l/ankle_angle_l/speed	/jointset/subtalar_l/subtalar_angle_l/speed	/forceset/tau_hip_flexion_l	/forceset/tau_hip_adduction_l	/forceset/tau_hip_rotation_l	/forceset/tau_knee_flexion_l	/forceset/tau_ankle_angle_l	/forceset/tau_subtalar_angle_l	/forceset/tau_lumbar_extension	lambda_cid13_p0	lambda_cid13_p1	lambda_cid13_p2	lambda_cid13_p3	lambda_cid13_p4	lambda_cid13_p5	lambda_cid14_p0	/jointset/ground_pelvis/pelvis_tilt/accel	/jointset/ground_pelvis/pelvis_tx/accel	/jointset/ground_pelvis/pelvis_ty/accel	/jointset/hip_l/hip_flexion_l/accel	/jointset/hip_l/hip_adduction_l/accel	/jointset/hip_l/hip_rotation_l/accel	/jointset/back/lumbar_extension/accel	/jointset/patellofemoral_l/patellar_flexion_l/accel	/jointset/knee_l/knee_flexion_l/accel	/jointset/knee_l/knee_adduction_l/accel	/jointset/knee_l/knee_rotation_l/accel	/jointset/ankle_l/ankle_angle_l/accel	/jointset/subtalar_l/subtalar_angle_l/accel	gamma_cid13_p0	gamma_cid13_p1	gamma_cid13_p2	gamma_cid13_p3	gamma_cid13_p4	gamma_cid13_p5	gamma_cid14_p0
0	-0.0368225865960789	0.05667752192621883	0.9203416082051959	0.3085811930696054	-0.2956402873973081	-0.3016070791592158	-0.3879500408040475	0.2499276582271517	0.249927658227084	-0.1745325634939399	-0.1745326977259615	-0.0008036543073733089	0.0004377965022612861	0	0	0	0	0	0	0	0	0	0	0	0	0	0.01605514959923553	-0.005600834029428401	-0.01674816837363798	-0.2159962080114629	0.1909371017023697	-0.02556455718358009	0.06236906973280844	15.46877252974793	5.516682303041809	1.953019480611898	-5.961093210662655	-665.7400386084695	-58.16365685641114	-23.19710314852501	1.017553118120248	-0.7935670891003617	-0.2130336916299471	2.027866395706121	-0.2119454004645694	1.25168233396668	-5.381200555752038	3.606075390596839	3.606075390596868	0.7198990974605816	0.002692921618419424	0.8348803246094298	0.05355366390650281	5.618681534227575e-09	3.501325111885639e-08	-4.619662140082783e-10	-4.360501489285487e-09	3.584365481246979e-08	6.623802282474397e-09	3.93420705334751e-09
0.01	-0.03677170201397935	0.05663947758824615	0.9203313352021486	0.3086781761147781	-0.2956510786898913	-0.3015443552986162	-0.3882158815636595	0.2501041521830828	0.2501041521831423	-0.1744983072632729	-0.1745313070034039	-0.0007616079469948144	0.000440376240349785	0.01011036945666849	-0.00745228581320098	-0.002034089321364418	0.01915356750148805	-0.002161869064891022	0.01246142644780978	-0.05278391732687726	0.03511409106584274	0.03511409106584393	0.006785482444261445	0.0002590443639192085	0.00851547515647637	0.0005499686930997426	0.01674567270833011	-0.02982552221833453	-0.01711202702412812	-0.2213299252830848	0.1933009202656389	-0.004623360237118927	0.06336624022683765	16.97579510690874	-3.567806876667139	3.088200170893015	-9.484246097855953	-667.6818886266951	-77.52478859005315	-23.19904305119906	0.9977955057019517	-0.6975729382595687	-0.1955126906339292	1.822645070881293	-0.2188557293856694	1.230872896603664	-5.169352126087291	3.436370157724837	3.436370157724958	0.6480144717661722	0.03464380475366585	0.8758129183331186	0.06081603699122327	5.240792272499456e-10	3.275515812188774e-08	1.366064944982727e-08	9.67904427734859e-10	1.321320645790653e-08	-4.333715454148985e-09	2.528441000529944e-09
0.02	-0.03662171040815987	0.05653160766996849	0.92030133807825	0.3089594034636223	-0.2956835982870796	-0.3013595171542473	-0.3889980344575199	0.2506262458884979	0.2506262458884735	-0.1743981678765457	-0.1745278991153012	-0.0006312204736174825	0.000449475178365069	0.01982140476418762	-0.01396511606099904	-0.003944824170266217	0.03684886074344206	-0.004345660925073029	0.02442285675215549	-0.1032624268505145	0.06911994985754487	0.06911994985754848	0.01317663104275307	0.0004034331667200641	0.0176682225995538	0.001303839985336963	0.01743619581757032	-0.05405021040765891	-0.01747588567594107	-0.2266636425543729	0.195664738828867	0.0163178367089163	0.06436341072106629	18.5103652944727	-12.65676904398708	4.223693681299372	-13.06849860883091	-669.2256804194773	-96.84884480916308	-23.20479415224525	0.9376862882929098	-0.605675976021898	-0.1883627971374709	1.736211543799085	-0.2163299595232759	1.151683105272492	-4.920118995102	3.384428935769067	3.384428935769339	0.641032328305806	-0.02023819060700101	0.9623347819270546	0.09433418373259544	-4.570523079727684e-09	3.049706512491908e-08	2.778326511366282e-08	6.296310344755205e-09	-9.417241896656735e-09	-1.529123319077237e-08	1.122674947712378e-09
0.03	-0.03637652535227315	0.05636275716016007	0.9202527517454103	0.3094111950629994	-0.2957379433923646	-0.3010573955962437	-0.3902738951496594	0.2514832407042957	0.2514832407044366	-0.1742357702132344	-0.174523526306355	-0.0004066306538350805	0.0004670788471589368	0.02916598688640389	-0.01970263682832447	-0.005760345029006931	0.05333970425605812	-0.006519044518654434	0.03594275158308111	-0.1515791862456142	0.102124013254938	0.1021240132549365	0.01925699370854263	0.0004693871360827218	0.02730210706173722	0.002240130886410889	0.01614932785460552	-0.04520986414395852	-0.01769067906324959	-0.2280274338053212	0.2020552967667238	0.007618747139062014	0.06642234939592269	20.18792196722402	-9.223335744282352	3.734397201121547	-14.75644583345237	-670.582620167061	-89.35241478480836	-23.21422155382841	0.9254005655211982	-0.5424364912554993	-0.1763340999270105	1.580056541853535	-0.217204590267248	1.143334441633314	-4.737875606111585	3.235144816019505	3.235144816018965	0.5846603823480306	0.01975467511709826	0.971771006119169	0.09675403159149017	-9.167887574072773e-09	1.980764762583951e-08	3.880781669190643e-08	1.005342049338869e-08	-2.706576593040784e-08	-2.499543376158339e-08	-1.210532994871064e-09
